#include <stdint.h>
const uint8_t veryshort[] = {
  0x4d, 0x54, 0x68, 0x64, 0x00, 0x00, 0x00, 0x06, 0x00, 0x01, 0x00, 0x02,
  0x01, 0x80, 0x4d, 0x54, 0x72, 0x6b, 0x00, 0x00, 0x00, 0x23, 0x00, 0xff,
  0x58, 0x04, 0x04, 0x02, 0x60, 0x08, 0x00, 0xff, 0x7f, 0x03, 0x00, 0x00,
  0x41, 0x00, 0xff, 0x7f, 0x05, 0x00, 0x00, 0x77, 0x0e, 0x00, 0x00, 0xff,
  0x51, 0x03, 0x05, 0x27, 0xad, 0x00, 0xff, 0x2f, 0x00, 0x4d, 0x54, 0x72,
  0x6b, 0x00, 0x00, 0x00, 0x46, 0x00, 0xb0, 0x00, 0x00, 0x00, 0xc0, 0x50,
  0x00, 0xb0, 0x07, 0x64, 0x00, 0x90, 0x3f, 0x64, 0x82, 0x00, 0x80, 0x3f,
  0x64, 0x81, 0x00, 0x90, 0x45, 0x64, 0x00, 0x90, 0x42, 0x64, 0x82, 0x00,
  0x80, 0x45, 0x64, 0x00, 0x80, 0x42, 0x64, 0x81, 0x00, 0x90, 0x3f, 0x64,
  0x82, 0x00, 0x80, 0x3f, 0x64, 0x81, 0x00, 0x90, 0x48, 0x64, 0x00, 0x90,
  0x42, 0x64, 0x82, 0x00, 0x80, 0x48, 0x64, 0x00, 0x80, 0x42, 0x64, 0x00,
  0xff, 0x2f, 0x00
};
const uint8_t shrt[] = {
  0x4d, 0x54, 0x68, 0x64, 0x00, 0x00, 0x00, 0x06, 0x00, 0x01, 0x00, 0x05,
  0x00, 0x60, 0x4d, 0x54, 0x72, 0x6b, 0x00, 0x00, 0x00, 0x32, 0x00, 0xff,
  0x03, 0x15, 0x50, 0x61, 0x63, 0x2d, 0x4d, 0x61, 0x6e, 0x20, 0x28, 0x6c,
  0x65, 0x76, 0x65, 0x6c, 0x20, 0x69, 0x6e, 0x74, 0x72, 0x6f, 0x29, 0x00,
  0xff, 0x58, 0x04, 0x04, 0x02, 0x18, 0x08, 0x00, 0xff, 0x59, 0x02, 0x00,
  0x00, 0x00, 0xff, 0x51, 0x03, 0x08, 0xa3, 0x16, 0x00, 0xff, 0x2f, 0x00,
  0x4d, 0x54, 0x72, 0x6b, 0x00, 0x00, 0x00, 0xeb, 0x00, 0xff, 0x21, 0x01,
  0x00, 0x00, 0xff, 0x03, 0x15, 0x50, 0x61, 0x63, 0x2d, 0x4d, 0x61, 0x6e,
  0x20, 0x2d, 0x20, 0x4c, 0x65, 0x76, 0x65, 0x6c, 0x20, 0x69, 0x6e, 0x74,
  0x72, 0x6f, 0x00, 0xb0, 0x00, 0x00, 0x00, 0x20, 0x00, 0x00, 0xc0, 0x50,
  0x00, 0xb0, 0x07, 0x7f, 0x00, 0x90, 0x47, 0x7f, 0x0c, 0x47, 0x00, 0x0c,
  0x53, 0x7f, 0x0c, 0x53, 0x00, 0x0c, 0x4e, 0x7f, 0x0c, 0x4e, 0x00, 0x0c,
  0x4b, 0x7f, 0x0c, 0x4b, 0x00, 0x0c, 0x53, 0x7f, 0x0c, 0x53, 0x00, 0x00,
  0x4e, 0x7f, 0x0c, 0x4e, 0x00, 0x18, 0x4b, 0x7f, 0x24, 0x4b, 0x00, 0x0c,
  0x48, 0x7f, 0x0c, 0x48, 0x00, 0x0c, 0x54, 0x7f, 0x0c, 0x54, 0x00, 0x0c,
  0x4f, 0x7f, 0x0c, 0x4f, 0x00, 0x0c, 0x4c, 0x7f, 0x0c, 0x4c, 0x00, 0x0c,
  0x54, 0x7f, 0x0c, 0x54, 0x00, 0x00, 0x4f, 0x7f, 0x0c, 0x4f, 0x00, 0x18,
  0x4c, 0x7f, 0x24, 0x4c, 0x00, 0x0c, 0x47, 0x7f, 0x0c, 0x47, 0x00, 0x0c,
  0x53, 0x7f, 0x0c, 0x53, 0x00, 0x0c, 0x4e, 0x7f, 0x0c, 0x4e, 0x00, 0x0c,
  0x4b, 0x7f, 0x0c, 0x4b, 0x00, 0x0c, 0x53, 0x7f, 0x0c, 0x53, 0x00, 0x00,
  0x4e, 0x7f, 0x0c, 0x4e, 0x00, 0x18, 0x4b, 0x7f, 0x24, 0x4b, 0x00, 0x0c,
  0x4b, 0x7f, 0x0c, 0x4b, 0x00, 0x00, 0x4c, 0x7f, 0x0c, 0x4c, 0x00, 0x00,
  0x4d, 0x7f, 0x0c, 0x4d, 0x00, 0x0c, 0x4d, 0x7f, 0x0c, 0x4d, 0x00, 0x00,
  0x4e, 0x7f, 0x0c, 0x4e, 0x00, 0x00, 0x4f, 0x7f, 0x0c, 0x4f, 0x00, 0x0c,
  0x4f, 0x7f, 0x0c, 0x4f, 0x00, 0x00, 0x50, 0x7f, 0x0c, 0x50, 0x00, 0x00,
  0x51, 0x7f, 0x0c, 0x51, 0x00, 0x0c, 0x53, 0x7f, 0x18, 0x53, 0x00, 0x00,
  0xff, 0x2f, 0x00, 0x4d, 0x54, 0x72, 0x6b, 0x00, 0x00, 0x00, 0x81, 0x00,
  0xff, 0x21, 0x01, 0x00, 0x00, 0xff, 0x03, 0x05, 0x42, 0x59, 0x3a, 0x20,
  0x3f, 0x00, 0xb1, 0x00, 0x00, 0x00, 0x20, 0x00, 0x00, 0xc1, 0x21, 0x00,
  0xb1, 0x07, 0x78, 0x00, 0x91, 0x23, 0x7f, 0x18, 0x23, 0x00, 0x30, 0x2f,
  0x7f, 0x18, 0x2f, 0x00, 0x00, 0x23, 0x7f, 0x18, 0x23, 0x00, 0x30, 0x2f,
  0x7f, 0x18, 0x2f, 0x00, 0x00, 0x24, 0x7f, 0x18, 0x24, 0x00, 0x30, 0x30,
  0x7f, 0x18, 0x30, 0x00, 0x00, 0x24, 0x7f, 0x18, 0x24, 0x00, 0x30, 0x30,
  0x7f, 0x18, 0x30, 0x00, 0x00, 0x23, 0x7f, 0x18, 0x23, 0x00, 0x30, 0x2f,
  0x7f, 0x18, 0x2f, 0x00, 0x00, 0x23, 0x7f, 0x18, 0x23, 0x00, 0x30, 0x2f,
  0x7f, 0x18, 0x2f, 0x00, 0x00, 0x2a, 0x7f, 0x18, 0x2a, 0x00, 0x18, 0x2c,
  0x7f, 0x18, 0x2c, 0x00, 0x18, 0x2e, 0x7f, 0x18, 0x2e, 0x00, 0x18, 0x2f,
  0x7f, 0x18, 0x2f, 0x00, 0x00, 0xff, 0x2f, 0x00, 0x4d, 0x54, 0x72, 0x6b,
  0x00, 0x00, 0x00, 0x2e, 0x00, 0xff, 0x21, 0x01, 0x00, 0x00, 0xff, 0x03,
  0x21, 0x52, 0x45, 0x3a, 0x20, 0x4f, 0x65, 0x64, 0x69, 0x70, 0x75, 0x73,
  0x20, 0x28, 0x6f, 0x65, 0x64, 0x69, 0x70, 0x75, 0x73, 0x40, 0x69, 0x73,
  0x6c, 0x61, 0x6e, 0x64, 0x69, 0x61, 0x2e, 0x69, 0x73, 0x29, 0x00, 0xff,
  0x2f, 0x00, 0x4d, 0x54, 0x72, 0x6b, 0x00, 0x00, 0x00, 0x19, 0x00, 0xff,
  0x21, 0x01, 0x00, 0x00, 0xff, 0x03, 0x0c, 0x43, 0x50, 0x55, 0x3a, 0x20,
  0x41, 0x72, 0x63, 0x61, 0x64, 0x65, 0x2e, 0x00, 0xff, 0x2f, 0x00
};
const uint8_t fruit[] = {
  0x4d, 0x54, 0x68, 0x64, 0x00, 0x00, 0x00, 0x06, 0x00, 0x01, 0x00, 0x04,
  0x04, 0x00, 0x4d, 0x54, 0x72, 0x6b, 0x00, 0x00, 0x00, 0x31, 0x00, 0xff,
  0x54, 0x05, 0x00, 0x00, 0x00, 0x00, 0x00, 0x00, 0xff, 0x58, 0x04, 0x02,
  0x01, 0x30, 0x08, 0x00, 0xff, 0x59, 0x02, 0x00, 0x00, 0x00, 0xff, 0x51,
  0x03, 0x04, 0x93, 0xe0, 0x00, 0xff, 0x51, 0x03, 0x02, 0x49, 0xf0, 0x00,
  0xff, 0x51, 0x03, 0x02, 0x49, 0xff, 0xe0, 0x05, 0xff, 0x2f, 0x00, 0x4d,
  0x54, 0x72, 0x6b, 0x00, 0x00, 0x00, 0x30, 0x00, 0xff, 0x09, 0x13, 0x59,
  0x41, 0x4d, 0x41, 0x48, 0x41, 0x20, 0x53, 0x39, 0x30, 0x20, 0x45, 0x53,
  0x20, 0x50, 0x6f, 0x72, 0x74, 0x31, 0x00, 0xff, 0x03, 0x05, 0x50, 0x69,
  0x61, 0x6e, 0x6f, 0x00, 0xc0, 0x00, 0x00, 0xb0, 0x07, 0x65, 0x00, 0xb0,
  0x0a, 0x40, 0xe0, 0x05, 0xff, 0x2f, 0x00, 0x4d, 0x54, 0x72, 0x6b, 0x00,
  0x00, 0x00, 0x87, 0x00, 0xff, 0x09, 0x13, 0x59, 0x41, 0x4d, 0x41, 0x48,
  0x41, 0x20, 0x53, 0x39, 0x30, 0x20, 0x45, 0x53, 0x20, 0x50, 0x6f, 0x72,
  0x74, 0x31, 0x00, 0xff, 0x03, 0x04, 0x52, 0x2e, 0x48, 0x2e, 0x00, 0xc0,
  0x00, 0x00, 0xb0, 0x07, 0x65, 0x00, 0xb0, 0x0a, 0x40, 0x00, 0xb0, 0x07,
  0x6e, 0x86, 0x50, 0x90, 0x4a, 0x40, 0x82, 0x7c, 0x80, 0x4a, 0x00, 0x19,
  0x90, 0x4f, 0x40, 0x82, 0x7b, 0x80, 0x4f, 0x00, 0x19, 0x90, 0x53, 0x40,
  0x83, 0x05, 0x80, 0x53, 0x00, 0x86, 0x46, 0x90, 0x4b, 0x40, 0x82, 0x75,
  0x80, 0x4b, 0x00, 0x19, 0x90, 0x50, 0x40, 0x82, 0x78, 0x80, 0x50, 0x00,
  0x19, 0x90, 0x54, 0x40, 0x83, 0x04, 0x80, 0x54, 0x00, 0x86, 0x69, 0x90,
  0x4d, 0x40, 0x82, 0x7c, 0x80, 0x4d, 0x00, 0x19, 0x90, 0x52, 0x40, 0x82,
  0x7b, 0x80, 0x52, 0x00, 0x19, 0x90, 0x56, 0x40, 0x83, 0x05, 0x80, 0x56,
  0x00, 0xb0, 0x07, 0xff, 0x2f, 0x00, 0x4d, 0x54, 0x72, 0x6b, 0x00, 0x00,
  0x00, 0x6b, 0x00, 0xff, 0x09, 0x13, 0x59, 0x41, 0x4d, 0x41, 0x48, 0x41,
  0x20, 0x53, 0x39, 0x30, 0x20, 0x45, 0x53, 0x20, 0x50, 0x6f, 0x72, 0x74,
  0x31, 0x00, 0xff, 0x03, 0x04, 0x4c, 0x2e, 0x48, 0x2e, 0x00, 0xc1, 0x00,
  0x00, 0xb1, 0x07, 0x65, 0x00, 0xb1, 0x0a, 0x40, 0x00, 0xb1, 0x07, 0x66,
  0x0a, 0x91, 0x43, 0x45, 0x83, 0x19, 0x81, 0x43, 0x00, 0x19, 0x91, 0x47,
  0x40, 0x82, 0x7b, 0x81, 0x47, 0x00, 0x89, 0x60, 0x91, 0x44, 0x40, 0x83,
  0x04, 0x81, 0x44, 0x00, 0x19, 0x91, 0x48, 0x40, 0x82, 0x77, 0x81, 0x48,
  0x00, 0x89, 0x55, 0x91, 0x46, 0x45, 0x83, 0x23, 0x81, 0x46, 0x00, 0x19,
  0x91, 0x4a, 0x40, 0x82, 0x7b, 0x81, 0x4a, 0x00, 0xb9, 0x4e, 0xff, 0x2f,
  0x00
};
const uint8_t moneymid[] = {
  0x4d, 0x54, 0x68, 0x64, 0x00, 0x00, 0x00, 0x06, 0x00, 0x01, 0x00, 0x04,
  0x04, 0x00, 0x4d, 0x54, 0x72, 0x6b, 0x00, 0x00, 0x00, 0x31, 0x00, 0xff,
  0x54, 0x05, 0x00, 0x00, 0x00, 0x00, 0x00, 0x00, 0xff, 0x58, 0x04, 0x02,
  0x01, 0x30, 0x08, 0x00, 0xff, 0x59, 0x02, 0x00, 0x00, 0x00, 0xff, 0x51,
  0x03, 0x04, 0x93, 0xe0, 0x00, 0xff, 0x51, 0x03, 0x02, 0x49, 0xf0, 0x00,
  0xff, 0x51, 0x03, 0x02, 0x49, 0xff, 0xc0, 0x06, 0xff, 0x2f, 0x00, 0x4d,
  0x54, 0x72, 0x6b, 0x00, 0x00, 0x00, 0x30, 0x00, 0xff, 0x09, 0x13, 0x59,
  0x41, 0x4d, 0x41, 0x48, 0x41, 0x20, 0x53, 0x39, 0x30, 0x20, 0x45, 0x53,
  0x20, 0x50, 0x6f, 0x72, 0x74, 0x31, 0x00, 0xff, 0x03, 0x05, 0x50, 0x69,
  0x61, 0x6e, 0x6f, 0x00, 0xc0, 0x00, 0x00, 0xb0, 0x07, 0x65, 0x00, 0xb0,
  0x0a, 0x40, 0xc0, 0x06, 0xff, 0x2f, 0x00, 0x4d, 0x54, 0x72, 0x6b, 0x00,
  0x00, 0x00, 0x45, 0x00, 0xff, 0x09, 0x13, 0x59, 0x41, 0x4d, 0x41, 0x48,
  0x41, 0x20, 0x53, 0x39, 0x30, 0x20, 0x45, 0x53, 0x20, 0x50, 0x6f, 0x72,
  0x74, 0x31, 0x00, 0xff, 0x03, 0x04, 0x52, 0x2e, 0x48, 0x2e, 0x00, 0xc0,
  0x00, 0x00, 0xb0, 0x07, 0x65, 0x00, 0xb0, 0x0a, 0x40, 0x00, 0xb0, 0x07,
  0x6e, 0x0a, 0x90, 0x53, 0x45, 0x83, 0x78, 0x80, 0x53, 0x00, 0x1f, 0x90,
  0x58, 0x43, 0x9b, 0x5e, 0x80, 0x58, 0x00, 0xa0, 0x07, 0xff, 0x2f, 0x00,
  0x4d, 0x54, 0x72, 0x6b, 0x00, 0x00, 0x00, 0x33, 0x00, 0xff, 0x09, 0x13,
  0x59, 0x41, 0x4d, 0x41, 0x48, 0x41, 0x20, 0x53, 0x39, 0x30, 0x20, 0x45,
  0x53, 0x20, 0x50, 0x6f, 0x72, 0x74, 0x31, 0x00, 0xff, 0x03, 0x04, 0x4c,
  0x2e, 0x48, 0x2e, 0x00, 0xc1, 0x00, 0x00, 0xb1, 0x07, 0x65, 0x00, 0xb1,
  0x0a, 0x40, 0x00, 0xb1, 0x07, 0x66, 0xc0, 0x06, 0xff, 0x2f, 0x00
};
const uint8_t pause[] = {
  0x4d, 0x54, 0x68, 0x64, 0x00, 0x00, 0x00, 0x06, 0x00, 0x01, 0x00, 0x04,
  0x04, 0x00, 0x4d, 0x54, 0x72, 0x6b, 0x00, 0x00, 0x00, 0x31, 0x00, 0xff,
  0x54, 0x05, 0x00, 0x00, 0x00, 0x00, 0x00, 0x00, 0xff, 0x58, 0x04, 0x02,
  0x01, 0x30, 0x08, 0x00, 0xff, 0x59, 0x02, 0x00, 0x00, 0x00, 0xff, 0x51,
  0x03, 0x04, 0x93, 0xe0, 0x00, 0xff, 0x51, 0x03, 0x02, 0x49, 0xf0, 0x00,
  0xff, 0x51, 0x03, 0x02, 0x49, 0xff, 0xc0, 0x06, 0xff, 0x2f, 0x00, 0x4d,
  0x54, 0x72, 0x6b, 0x00, 0x00, 0x00, 0x30, 0x00, 0xff, 0x09, 0x13, 0x59,
  0x41, 0x4d, 0x41, 0x48, 0x41, 0x20, 0x53, 0x39, 0x30, 0x20, 0x45, 0x53,
  0x20, 0x50, 0x6f, 0x72, 0x74, 0x31, 0x00, 0xff, 0x03, 0x05, 0x50, 0x69,
  0x61, 0x6e, 0x6f, 0x00, 0xc0, 0x00, 0x00, 0xb0, 0x07, 0x65, 0x00, 0xb0,
  0x0a, 0x40, 0xc0, 0x06, 0xff, 0x2f, 0x00, 0x4d, 0x54, 0x72, 0x6b, 0x00,
  0x00, 0x00, 0x57, 0x00, 0xff, 0x09, 0x13, 0x59, 0x41, 0x4d, 0x41, 0x48,
  0x41, 0x20, 0x53, 0x39, 0x30, 0x20, 0x45, 0x53, 0x20, 0x50, 0x6f, 0x72,
  0x74, 0x31, 0x00, 0xff, 0x03, 0x04, 0x52, 0x2e, 0x48, 0x2e, 0x00, 0xc0,
  0x00, 0x00, 0xb0, 0x07, 0x65, 0x00, 0xb0, 0x0a, 0x40, 0x00, 0xb0, 0x07,
  0x6e, 0x0a, 0x90, 0x58, 0x45, 0x85, 0x17, 0x80, 0x58, 0x00, 0x29, 0x90,
  0x54, 0x40, 0x84, 0x78, 0x80, 0x54, 0x00, 0x29, 0x90, 0x58, 0x40, 0x85,
  0x03, 0x80, 0x58, 0x00, 0x29, 0x90, 0x54, 0x40, 0x8f, 0x68, 0x80, 0x54,
  0x00, 0xa0, 0x07, 0xff, 0x2f, 0x00, 0x4d, 0x54, 0x72, 0x6b, 0x00, 0x00,
  0x00, 0x33, 0x00, 0xff, 0x09, 0x13, 0x59, 0x41, 0x4d, 0x41, 0x48, 0x41,
  0x20, 0x53, 0x39, 0x30, 0x20, 0x45, 0x53, 0x20, 0x50, 0x6f, 0x72, 0x74,
  0x31, 0x00, 0xff, 0x03, 0x04, 0x4c, 0x2e, 0x48, 0x2e, 0x00, 0xc1, 0x00,
  0x00, 0xb1, 0x07, 0x65, 0x00, 0xb1, 0x0a, 0x40, 0x00, 0xb1, 0x07, 0x66,
  0xc0, 0x06, 0xff, 0x2f, 0x00
};
const uint8_t death[] = {
  0x4d, 0x54, 0x68, 0x64, 0x00, 0x00, 0x00, 0x06, 0x00, 0x01, 0x00, 0x04,
  0x04, 0x00, 0x4d, 0x54, 0x72, 0x6b, 0x00, 0x00, 0x00, 0x79, 0x00, 0xff,
  0x54, 0x05, 0x00, 0x00, 0x00, 0x00, 0x00, 0x00, 0xff, 0x58, 0x04, 0x02,
  0x01, 0x30, 0x08, 0x00, 0xff, 0x59, 0x02, 0x00, 0x00, 0x00, 0xff, 0x51,
  0x03, 0x04, 0x93, 0xe0, 0x00, 0xff, 0x51, 0x03, 0x02, 0x49, 0xf0, 0x00,
  0xff, 0x51, 0x03, 0x02, 0x49, 0xff, 0xb0, 0x00, 0xff, 0x51, 0x03, 0x02,
  0x49, 0xff, 0x82, 0x00, 0xff, 0x51, 0x03, 0x02, 0x4c, 0xee, 0x82, 0x00,
  0xff, 0x51, 0x03, 0x02, 0x4f, 0xe4, 0x82, 0x00, 0xff, 0x51, 0x03, 0x02,
  0x52, 0xe2, 0x82, 0x00, 0xff, 0x51, 0x03, 0x02, 0x55, 0xe9, 0x82, 0x00,
  0xff, 0x51, 0x03, 0x02, 0x58, 0xf6, 0x82, 0x00, 0xff, 0x51, 0x03, 0x02,
  0x5c, 0x24, 0x82, 0x00, 0xff, 0x51, 0x03, 0x02, 0x5f, 0x42, 0x84, 0x00,
  0xff, 0x51, 0x03, 0x02, 0x49, 0xff, 0xfe, 0x06, 0xff, 0x2f, 0x00, 0x4d,
  0x54, 0x72, 0x6b, 0x00, 0x00, 0x00, 0x31, 0x00, 0xff, 0x09, 0x13, 0x59,
  0x41, 0x4d, 0x41, 0x48, 0x41, 0x20, 0x53, 0x39, 0x30, 0x20, 0x45, 0x53,
  0x20, 0x50, 0x6f, 0x72, 0x74, 0x31, 0x00, 0xff, 0x03, 0x05, 0x50, 0x69,
  0x61, 0x6e, 0x6f, 0x00, 0xc0, 0x00, 0x00, 0xb0, 0x07, 0x65, 0x00, 0xb0,
  0x0a, 0x40, 0x81, 0xc0, 0x06, 0xff, 0x2f, 0x00, 0x4d, 0x54, 0x72, 0x6b,
  0x00, 0x00, 0x00, 0xe6, 0x00, 0xff, 0x09, 0x13, 0x59, 0x41, 0x4d, 0x41,
  0x48, 0x41, 0x20, 0x53, 0x39, 0x30, 0x20, 0x45, 0x53, 0x20, 0x50, 0x6f,
  0x72, 0x74, 0x31, 0x00, 0xff, 0x03, 0x04, 0x52, 0x2e, 0x48, 0x2e, 0x00,
  0xc0, 0x00, 0x00, 0xb0, 0x07, 0x65, 0x00, 0xb0, 0x0a, 0x40, 0x00, 0xb0,
  0x07, 0x6e, 0x0a, 0x90, 0x48, 0x45, 0x82, 0x09, 0x80, 0x48, 0x00, 0x10,
  0x90, 0x49, 0x40, 0x81, 0x6e, 0x80, 0x49, 0x00, 0x10, 0x90, 0x4a, 0x43,
  0x81, 0x46, 0x80, 0x4a, 0x00, 0x9a, 0x19, 0x90, 0x43, 0x3d, 0x00, 0x90,
  0x47, 0x4b, 0x88, 0x1a, 0x80, 0x43, 0x00, 0x00, 0x80, 0x47, 0x00, 0x01,
  0x90, 0x4a, 0x38, 0x00, 0x90, 0x4d, 0x46, 0x87, 0x7b, 0x80, 0x4a, 0x00,
  0x00, 0x80, 0x4d, 0x00, 0x87, 0x75, 0x90, 0x4a, 0x38, 0x00, 0x90, 0x4d,
  0x42, 0x87, 0x74, 0x80, 0x4a, 0x00, 0x00, 0x80, 0x4d, 0x00, 0x01, 0x90,
  0x4a, 0x3d, 0x00, 0x90, 0x4d, 0x4b, 0x85, 0x40, 0x80, 0x4a, 0x00, 0x00,
  0x80, 0x4d, 0x00, 0x85, 0x2b, 0x90, 0x48, 0x38, 0x00, 0x90, 0x4c, 0x46,
  0x85, 0x29, 0x80, 0x48, 0x00, 0x00, 0x80, 0x4c, 0x00, 0x85, 0x2c, 0x90,
  0x47, 0x38, 0x00, 0x90, 0x4a, 0x46, 0x85, 0x15, 0x80, 0x47, 0x00, 0x00,
  0x80, 0x4a, 0x00, 0x85, 0x2b, 0x90, 0x43, 0x3d, 0x00, 0x90, 0x48, 0x4b,
  0x88, 0x1a, 0x80, 0x43, 0x00, 0x00, 0x80, 0x48, 0x00, 0x01, 0x90, 0x40,
  0x40, 0x87, 0x7b, 0x80, 0x40, 0x00, 0x87, 0x75, 0x90, 0x40, 0x40, 0x87,
  0x74, 0x80, 0x40, 0x00, 0x01, 0x90, 0x3c, 0x45, 0x88, 0x1a, 0x80, 0x3c,
  0x00, 0xb7, 0x6c, 0xff, 0x2f, 0x00, 0x4d, 0x54, 0x72, 0x6b, 0x00, 0x00,
  0x00, 0x82, 0x00, 0xff, 0x09, 0x13, 0x59, 0x41, 0x4d, 0x41, 0x48, 0x41,
  0x20, 0x53, 0x39, 0x30, 0x20, 0x45, 0x53, 0x20, 0x50, 0x6f, 0x72, 0x74,
  0x31, 0x00, 0xff, 0x03, 0x04, 0x4c, 0x2e, 0x48, 0x2e, 0x00, 0xc1, 0x00,
  0x00, 0xb1, 0x07, 0x65, 0x00, 0xb1, 0x0a, 0x40, 0x00, 0xb1, 0x07, 0x66,
  0xa0, 0x00, 0x91, 0x37, 0x45, 0x88, 0x1a, 0x81, 0x37, 0x00, 0x8f, 0x71,
  0x91, 0x37, 0x40, 0x87, 0x74, 0x81, 0x37, 0x00, 0x01, 0x91, 0x37, 0x45,
  0x85, 0x40, 0x81, 0x37, 0x00, 0x85, 0x2b, 0x91, 0x39, 0x40, 0x85, 0x29,
  0x81, 0x39, 0x00, 0x85, 0x2c, 0x91, 0x3b, 0x40, 0x85, 0x15, 0x81, 0x3b,
  0x00, 0x85, 0x2b, 0x91, 0x3c, 0x45, 0x88, 0x1a, 0x81, 0x3c, 0x00, 0x87,
  0x7d, 0x91, 0x37, 0x40, 0x87, 0x73, 0x81, 0x37, 0x00, 0x87, 0x76, 0x91,
  0x30, 0x45, 0x88, 0x1a, 0x81, 0x30, 0x00, 0xb7, 0x6c, 0xff, 0x2f, 0x00
};
const uint8_t medley[] = {
  0x4d, 0x54, 0x68, 0x64, 0x00, 0x00, 0x00, 0x06, 0x00, 0x01, 0x00, 0x02,
  0x04, 0x00, 0x4d, 0x54, 0x72, 0x6b, 0x00, 0x00, 0x00, 0xbc, 0x00, 0xff,
  0x54, 0x05, 0x00, 0x00, 0x00, 0x00, 0x00, 0x00, 0xff, 0x58, 0x04, 0x04,
  0x02, 0x18, 0x08, 0x00, 0xff, 0x59, 0x02, 0x00, 0x00, 0x00, 0xff, 0x51,
  0x03, 0x07, 0xa1, 0x1f, 0x00, 0xff, 0x51, 0x03, 0x07, 0xa1, 0x23, 0x81,
  0x90, 0x00, 0xff, 0x51, 0x03, 0x07, 0xa1, 0x23, 0x82, 0x00, 0xff, 0x51,
  0x03, 0x07, 0xb2, 0x72, 0x82, 0x00, 0xff, 0x51, 0x03, 0x07, 0xba, 0x40,
  0x82, 0x00, 0xff, 0x51, 0x03, 0x07, 0xc3, 0x19, 0x82, 0x00, 0xff, 0x51,
  0x03, 0x07, 0xd4, 0x05, 0x82, 0x00, 0xff, 0x51, 0x03, 0x07, 0xdc, 0x15,
  0x82, 0x00, 0xff, 0x51, 0x03, 0x07, 0xe5, 0x3c, 0x82, 0x00, 0xff, 0x51,
  0x03, 0x07, 0xed, 0x6f, 0x84, 0x00, 0xff, 0x51, 0x03, 0x07, 0xa1, 0x23,
  0x82, 0x8e, 0x00, 0xff, 0x51, 0x03, 0x07, 0xa1, 0x23, 0x82, 0x00, 0xff,
  0x51, 0x03, 0x07, 0xb2, 0x72, 0x82, 0x00, 0xff, 0x51, 0x03, 0x07, 0xba,
  0x40, 0x82, 0x00, 0xff, 0x51, 0x03, 0x07, 0xc3, 0x19, 0x82, 0x00, 0xff,
  0x51, 0x03, 0x07, 0xd4, 0x05, 0x82, 0x00, 0xff, 0x51, 0x03, 0x07, 0xdc,
  0x15, 0x82, 0x00, 0xff, 0x51, 0x03, 0x07, 0xe5, 0x3c, 0x82, 0x00, 0xff,
  0x51, 0x03, 0x07, 0xed, 0x6f, 0x84, 0x00, 0xff, 0x51, 0x03, 0x07, 0xa1,
  0x23, 0xfd, 0x7f, 0xff, 0x2f, 0x00, 0x4d, 0x54, 0x72, 0x6b, 0x00, 0x00,
  0x0a, 0x86, 0x00, 0xff, 0x09, 0x16, 0x53, 0x6d, 0x61, 0x72, 0x74, 0x4d,
  0x75, 0x73, 0x69, 0x63, 0x20, 0x53, 0x6f, 0x66, 0x74, 0x53, 0x79, 0x6e,
  0x74, 0x68, 0x20, 0x31, 0x00, 0xff, 0x03, 0x05, 0x50, 0x69, 0x61, 0x6e,
  0x6f, 0x00, 0xc0, 0x00, 0x00, 0xb0, 0x07, 0x65, 0x00, 0xb0, 0x0a, 0x40,
  0x00, 0xb0, 0x07, 0x66, 0x00, 0xb0, 0x07, 0x6e, 0x03, 0xb0, 0x64, 0x00,
  0x00, 0xb0, 0x65, 0x00, 0x00, 0xb0, 0x64, 0x00, 0x00, 0xb0, 0x65, 0x00,
  0x01, 0xb0, 0x06, 0x0c, 0x00, 0xb0, 0x06, 0x0c, 0x01, 0xb0, 0x26, 0x00,
  0x00, 0xb0, 0x26, 0x00, 0x9c, 0x7b, 0x90, 0x48, 0x40, 0x75, 0x80, 0x48,
  0x00, 0x08, 0x90, 0x4a, 0x40, 0x76, 0x80, 0x4a, 0x00, 0x08, 0x90, 0x4c,
  0x40, 0x4f, 0xb0, 0x07, 0x66, 0x2e, 0x80, 0x4c, 0x00, 0x0c, 0x90, 0x4d,
  0x45, 0x00, 0x90, 0x29, 0x45, 0x83, 0x7f, 0x80, 0x4d, 0x00, 0x1f, 0x90,
  0x51, 0x40, 0x83, 0x5d, 0x80, 0x51, 0x00, 0x1e, 0x80, 0x29, 0x00, 0x01,
  0x90, 0x4f, 0x41, 0x00, 0x90, 0x24, 0x3f, 0x83, 0x5a, 0x80, 0x4f, 0x00,
  0x1f, 0x90, 0x52, 0x40, 0x83, 0x5f, 0x80, 0x52, 0x00, 0x1e, 0x80, 0x24,
  0x00, 0x01, 0x90, 0x51, 0x43, 0x00, 0x90, 0x29, 0x43, 0x81, 0x77, 0x80,
  0x51, 0x00, 0x10, 0x90, 0x52, 0x40, 0x81, 0x67, 0x80, 0x52, 0x00, 0x10,
  0x90, 0x54, 0x40, 0x81, 0x68, 0x80, 0x54, 0x00, 0x10, 0x90, 0x51, 0x40,
  0x81, 0x71, 0x80, 0x51, 0x00, 0x0f, 0x80, 0x29, 0x00, 0x01, 0x90, 0x4f,
  0x41, 0x00, 0x90, 0x2b, 0x41, 0x81, 0x71, 0x80, 0x2b, 0x00, 0x10, 0x90,
  0x2d, 0x40, 0x81, 0x59, 0x80, 0x4f, 0x00, 0x0f, 0x80, 0x2d, 0x00, 0x10,
  0x90, 0x52, 0x40, 0x00, 0x90, 0x2e, 0x40, 0x81, 0x68, 0x80, 0x2e, 0x00,
  0x10, 0x90, 0x2b, 0x40, 0x81, 0x64, 0x80, 0x52, 0x00, 0x0f, 0x80, 0x2b,
  0x00, 0x14, 0x90, 0x51, 0x45, 0x00, 0x90, 0x2d, 0x45, 0x82, 0x15, 0x80,
  0x51, 0x00, 0x00, 0x80, 0x2d, 0x00, 0x10, 0x90, 0x52, 0x40, 0x00, 0x90,
  0x2b, 0x40, 0x81, 0x69, 0x80, 0x52, 0x00, 0x00, 0x80, 0x2b, 0x00, 0x10,
  0x90, 0x54, 0x40, 0x00, 0x90, 0x29, 0x40, 0x81, 0x69, 0x80, 0x54, 0x00,
  0x00, 0x80, 0x29, 0x00, 0x10, 0x90, 0x51, 0x40, 0x00, 0x90, 0x2d, 0x40,
  0x81, 0x73, 0x80, 0x51, 0x00, 0x00, 0x80, 0x2d, 0x00, 0x10, 0x90, 0x52,
  0x41, 0x00, 0x90, 0x2b, 0x41, 0x81, 0x72, 0x80, 0x52, 0x00, 0x00, 0x80,
  0x2b, 0x00, 0x10, 0x90, 0x54, 0x40, 0x00, 0x90, 0x29, 0x40, 0x81, 0x67,
  0x80, 0x54, 0x00, 0x00, 0x80, 0x29, 0x00, 0x10, 0x90, 0x56, 0x40, 0x00,
  0x90, 0x28, 0x3f, 0x81, 0x68, 0x80, 0x56, 0x00, 0x00, 0x80, 0x28, 0x00,
  0x10, 0x90, 0x58, 0x40, 0x00, 0x90, 0x2b, 0x40, 0x81, 0x76, 0x80, 0x58,
  0x00, 0x00, 0x80, 0x2b, 0x00, 0x10, 0x90, 0x59, 0x43, 0x00, 0x90, 0x29,
  0x43, 0x83, 0x5f, 0x80, 0x59, 0x00, 0x00, 0x80, 0x29, 0x00, 0x1f, 0x90,
  0x58, 0x40, 0x00, 0x90, 0x24, 0x3e, 0x83, 0x5a, 0x80, 0x58, 0x00, 0x00,
  0x80, 0x24, 0x00, 0x1f, 0x90, 0x59, 0x41, 0x00, 0x90, 0x29, 0x41, 0x87,
  0x73, 0x80, 0x59, 0x00, 0x00, 0x80, 0x29, 0x00, 0x81, 0x62, 0xb0, 0x07,
  0x6e, 0x9a, 0x24, 0x90, 0x43, 0x40, 0x83, 0x45, 0xb0, 0x07, 0x66, 0x17,
  0x80, 0x43, 0x00, 0x23, 0x90, 0x47, 0x45, 0x00, 0x90, 0x3b, 0x45, 0x82,
  0x15, 0x80, 0x47, 0x00, 0x00, 0x80, 0x3b, 0x00, 0x10, 0x90, 0x48, 0x40,
  0x00, 0x90, 0x3a, 0x40, 0x81, 0x69, 0x80, 0x48, 0x00, 0x0f, 0x80, 0x3a,
  0x00, 0x01, 0x90, 0x49, 0x40, 0x00, 0x90, 0x3a, 0x40, 0x81, 0x69, 0x80,
  0x49, 0x00, 0x00, 0x80, 0x3a, 0x00, 0x10, 0x90, 0x4a, 0x40, 0x00, 0x90,
  0x39, 0x40, 0x82, 0x02, 0x80, 0x39, 0x00, 0x01, 0x90, 0x39, 0x41, 0x81,
  0x72, 0x80, 0x4a, 0x00, 0x00, 0x80, 0x39, 0x00, 0x10, 0x90, 0x49, 0x40,
  0x00, 0x90, 0x38, 0x40, 0x81, 0x67, 0x80, 0x49, 0x00, 0x00, 0x80, 0x38,
  0x00, 0x10, 0x90, 0x4a, 0x40, 0x00, 0x90, 0x37, 0x40, 0x83, 0x5f, 0x80,
  0x4a, 0x00, 0x00, 0x80, 0x37, 0x00, 0x1f, 0x90, 0x47, 0x43, 0x00, 0x90,
  0x35, 0x43, 0x81, 0x77, 0x80, 0x47, 0x00, 0x00, 0x80, 0x35, 0x00, 0x10,
  0x90, 0x4a, 0x40, 0x00, 0x90, 0x34, 0x40, 0x81, 0x67, 0x80, 0x4a, 0x00,
  0x00, 0x80, 0x34, 0x00, 0x10, 0x90, 0x4c, 0x40, 0x00, 0x90, 0x33, 0x40,
  0x81, 0x68, 0x80, 0x4c, 0x00, 0x00, 0x80, 0x33, 0x00, 0x10, 0x90, 0x4d,
  0x40, 0x00, 0x90, 0x32, 0x40, 0x82, 0x00, 0x80, 0x32, 0x00, 0x01, 0x90,
  0x32, 0x41, 0x81, 0x71, 0x80, 0x4d, 0x00, 0x00, 0x80, 0x32, 0x00, 0x10,
  0x90, 0x4c, 0x40, 0x00, 0x90, 0x31, 0x40, 0x81, 0x68, 0x80, 0x4c, 0x00,
  0x00, 0x80, 0x31, 0x00, 0x10, 0x90, 0x4d, 0x40, 0x00, 0x90, 0x30, 0x40,
  0x83, 0x5c, 0x80, 0x4d, 0x00, 0x00, 0x80, 0x30, 0x00, 0x23, 0x90, 0x53,
  0x45, 0x00, 0x90, 0x2b, 0x45, 0x82, 0x15, 0x80, 0x53, 0x00, 0x10, 0x90,
  0x51, 0x40, 0x81, 0x69, 0x80, 0x51, 0x00, 0x10, 0x90, 0x4f, 0x40, 0x81,
  0x69, 0x80, 0x4f, 0x00, 0x10, 0x90, 0x4d, 0x40, 0x81, 0x73, 0x80, 0x4d,
  0x00, 0x0f, 0x80, 0x2b, 0x00, 0x01, 0x90, 0x4c, 0x41, 0x00, 0x90, 0x2b,
  0x41, 0x81, 0x72, 0x80, 0x4c, 0x00, 0x10, 0x90, 0x4d, 0x40, 0x81, 0x76,
  0x80, 0x2b, 0x00, 0x01, 0x90, 0x2b, 0x40, 0x81, 0x59, 0x80, 0x4d, 0x00,
  0x0f, 0x80, 0x2b, 0x00, 0x10, 0x90, 0x45, 0x40, 0x00, 0x90, 0x2d, 0x40,
  0x81, 0x76, 0x80, 0x45, 0x00, 0x00, 0x80, 0x2d, 0x00, 0x10, 0x90, 0x48,
  0x43, 0x00, 0x90, 0x30, 0x37, 0x83, 0x7e, 0x90, 0x34, 0x34, 0x1e, 0x80,
  0x30, 0x00, 0x83, 0x5b, 0x90, 0x2b, 0x35, 0x1e, 0x80, 0x34, 0x00, 0x83,
  0x5a, 0x80, 0x48, 0x00, 0x01, 0x90, 0x43, 0x40, 0x00, 0x90, 0x34, 0x34,
  0x1e, 0x80, 0x2b, 0x00, 0x83, 0x3e, 0x80, 0x43, 0x00, 0x23, 0x90, 0x4c,
  0x45, 0x00, 0x90, 0x30, 0x39, 0x1a, 0x80, 0x34, 0x00, 0x81, 0x7b, 0x80,
  0x4c, 0x00, 0x10, 0x90, 0x4d, 0x40, 0x81, 0x69, 0x80, 0x4d, 0x00, 0x10,
  0x90, 0x4e, 0x40, 0x00, 0x90, 0x34, 0x34, 0x1e, 0x80, 0x30, 0x00, 0x81,
  0x4b, 0x80, 0x4e, 0x00, 0x10, 0x90, 0x4f, 0x40, 0x81, 0x73, 0x80, 0x4f,
  0x00, 0x10, 0x90, 0x48, 0x41, 0x00, 0x90, 0x2b, 0x35, 0x1e, 0x80, 0x34,
  0x00, 0x81, 0x54, 0x80, 0x48, 0x00, 0x10, 0x90, 0x4a, 0x40, 0x81, 0x67,
  0x80, 0x4a, 0x00, 0x10, 0x90, 0x4b, 0x40, 0x00, 0x90, 0x34, 0x34, 0x1e,
  0x80, 0x2b, 0x00, 0x81, 0x4a, 0x80, 0x4b, 0x00, 0x10, 0x90, 0x4c, 0x40,
  0x81, 0x76, 0x80, 0x4c, 0x00, 0x10, 0x90, 0x48, 0x43, 0x00, 0x90, 0x30,
  0x37, 0x1e, 0x80, 0x34, 0x00, 0x81, 0x59, 0x80, 0x48, 0x00, 0x10, 0x90,
  0x4c, 0x40, 0x81, 0x67, 0x80, 0x4c, 0x00, 0x10, 0x90, 0x48, 0x40, 0x00,
  0x90, 0x34, 0x34, 0x1e, 0x80, 0x30, 0x00, 0x81, 0x4a, 0x80, 0x48, 0x00,
  0x10, 0x90, 0x43, 0x40, 0x82, 0x01, 0x90, 0x2b, 0x35, 0x1e, 0x80, 0x34,
  0x00, 0x81, 0x53, 0x80, 0x43, 0x00, 0x10, 0x90, 0x40, 0x40, 0x81, 0x68,
  0x80, 0x40, 0x00, 0x10, 0x90, 0x41, 0x40, 0x00, 0x90, 0x34, 0x34, 0x1e,
  0x80, 0x2b, 0x00, 0x81, 0x4a, 0x80, 0x41, 0x00, 0x10, 0x90, 0x42, 0x40,
  0x81, 0x73, 0x80, 0x42, 0x00, 0x0f, 0x80, 0x34, 0x00, 0x05, 0x90, 0x43,
  0x45, 0x00, 0x90, 0x34, 0x39, 0x84, 0x1e, 0x90, 0x37, 0x34, 0x1e, 0x80,
  0x34, 0x00, 0x83, 0x5d, 0x80, 0x43, 0x00, 0x01, 0x90, 0x46, 0x41, 0x00,
  0x90, 0x33, 0x35, 0x1e, 0x80, 0x37, 0x00, 0x83, 0x5b, 0x90, 0x36, 0x34,
  0x1e, 0x80, 0x33, 0x00, 0x83, 0x5f, 0x80, 0x46, 0x00, 0x01, 0x90, 0x47,
  0x43, 0x00, 0x90, 0x32, 0x37, 0x1e, 0x80, 0x36, 0x00, 0x83, 0x60, 0x90,
  0x35, 0x34, 0x1e, 0x80, 0x32, 0x00, 0x83, 0x5b, 0x90, 0x2b, 0x35, 0x1e,
  0x80, 0x35, 0x00, 0x83, 0x5a, 0x80, 0x47, 0x00, 0x01, 0x90, 0x41, 0x40,
  0x00, 0x90, 0x35, 0x34, 0x1e, 0x80, 0x2b, 0x00, 0x83, 0x3e, 0x80, 0x41,
  0x00, 0x23, 0x90, 0x4d, 0x45, 0x00, 0x90, 0x32, 0x39, 0x1a, 0x80, 0x35,
  0x00, 0x81, 0x7b, 0x80, 0x4d, 0x00, 0x10, 0x90, 0x4c, 0x40, 0x81, 0x69,
  0x80, 0x4c, 0x00, 0x10, 0x90, 0x47, 0x40, 0x00, 0x90, 0x35, 0x34, 0x1e,
  0x80, 0x32, 0x00, 0x81, 0x4b, 0x80, 0x47, 0x00, 0x10, 0x90, 0x48, 0x40,
  0x81, 0x73, 0x80, 0x48, 0x00, 0x10, 0x90, 0x4c, 0x41, 0x00, 0x90, 0x2b,
  0x35, 0x1e, 0x80, 0x35, 0x00, 0x81, 0x54, 0x80, 0x4c, 0x00, 0x10, 0x90,
  0x4a, 0x40, 0x81, 0x67, 0x80, 0x4a, 0x00, 0x10, 0x90, 0x46, 0x40, 0x00,
  0x90, 0x35, 0x34, 0x1e, 0x80, 0x2b, 0x00, 0x81, 0x4a, 0x80, 0x46, 0x00,
  0x10, 0x90, 0x47, 0x40, 0x81, 0x76, 0x80, 0x47, 0x00, 0x10, 0x90, 0x4a,
  0x43, 0x00, 0x90, 0x32, 0x37, 0x1e, 0x80, 0x35, 0x00, 0x81, 0x59, 0x80,
  0x4a, 0x00, 0x10, 0x90, 0x4d, 0x40, 0x81, 0x67, 0x80, 0x4d, 0x00, 0x10,
  0x90, 0x51, 0x40, 0x00, 0x90, 0x35, 0x34, 0x1e, 0x80, 0x32, 0x00, 0x81,
  0x4a, 0x80, 0x51, 0x00, 0x10, 0x90, 0x4f, 0x40, 0x82, 0x01, 0x90, 0x2b,
  0x35, 0x1e, 0x80, 0x35, 0x00, 0x81, 0x53, 0x80, 0x4f, 0x00, 0x10, 0x90,
  0x4d, 0x40, 0x81, 0x68, 0x80, 0x4d, 0x00, 0x10, 0x90, 0x4a, 0x40, 0x00,
  0x90, 0x35, 0x34, 0x1e, 0x80, 0x2b, 0x00, 0x81, 0x4a, 0x80, 0x4a, 0x00,
  0x10, 0x90, 0x47, 0x40, 0x81, 0x73, 0x80, 0x47, 0x00, 0x0f, 0x80, 0x35,
  0x00, 0x05, 0x90, 0x45, 0x45, 0x00, 0x90, 0x35, 0x45, 0x88, 0x19, 0x80,
  0x45, 0x00, 0x00, 0x80, 0x35, 0x00, 0x01, 0x90, 0x43, 0x41, 0x00, 0x90,
  0x32, 0x41, 0x87, 0x76, 0x80, 0x43, 0x00, 0x00, 0x80, 0x32, 0x00, 0x01,
  0x90, 0x48, 0x43, 0x00, 0x90, 0x34, 0x43, 0x81, 0x77, 0x80, 0x48, 0x00,
  0x00, 0x80, 0x34, 0x00, 0x10, 0x90, 0x4a, 0x40, 0x00, 0x90, 0x35, 0x40,
  0x81, 0x67, 0x80, 0x4a, 0x00, 0x00, 0x80, 0x35, 0x00, 0x10, 0x90, 0x4b,
  0x40, 0x00, 0x90, 0x36, 0x40, 0x81, 0x68, 0x80, 0x4b, 0x00, 0x00, 0x80,
  0x36, 0x00, 0x10, 0x90, 0x4c, 0x40, 0x00, 0x90, 0x37, 0x40, 0x81, 0x71,
  0x80, 0x4c, 0x00, 0x0f, 0x80, 0x37, 0x00, 0x01, 0x90, 0x45, 0x41, 0x00,
  0x90, 0x37, 0x41, 0x81, 0x71, 0x80, 0x45, 0x00, 0x00, 0x80, 0x37, 0x00,
  0x10, 0x90, 0x46, 0x40, 0x00, 0x90, 0x34, 0x40, 0x81, 0x68, 0x80, 0x46,
  0x00, 0x00, 0x80, 0x34, 0x00, 0x10, 0x90, 0x47, 0x40, 0x00, 0x90, 0x32,
  0x40, 0x81, 0x68, 0x80, 0x47, 0x00, 0x00, 0x80, 0x32, 0x00, 0x10, 0x90,
  0x4a, 0x40, 0x00, 0x90, 0x2b, 0x40, 0x81, 0x73, 0x80, 0x4a, 0x00, 0x00,
  0x80, 0x2b, 0x00, 0x14, 0x90, 0x4c, 0x45, 0x00, 0x90, 0x30, 0x45, 0x82,
  0x15, 0x80, 0x4c, 0x00, 0x10, 0x90, 0x4d, 0x40, 0x81, 0x5a, 0x80, 0x30,
  0x00, 0x0f, 0x80, 0x4d, 0x00, 0x10, 0x90, 0x4e, 0x40, 0x00, 0x90, 0x34,
  0x40, 0x81, 0x69, 0x80, 0x4e, 0x00, 0x10, 0x90, 0x4f, 0x40, 0x81, 0x64,
  0x80, 0x34, 0x00, 0x0f, 0x80, 0x4f, 0x00, 0x10, 0x90, 0x48, 0x41, 0x00,
  0x90, 0x2b, 0x41, 0x81, 0x72, 0x80, 0x48, 0x00, 0x10, 0x90, 0x4a, 0x40,
  0x81, 0x58, 0x80, 0x2b, 0x00, 0x0f, 0x80, 0x4a, 0x00, 0x10, 0x90, 0x4b,
  0x40, 0x00, 0x90, 0x34, 0x40, 0x81, 0x68, 0x80, 0x4b, 0x00, 0x10, 0x90,
  0x4c, 0x40, 0x81, 0x67, 0x80, 0x34, 0x00, 0x0f, 0x80, 0x4c, 0x00, 0x10,
  0x90, 0x48, 0x43, 0x00, 0x90, 0x30, 0x43, 0x81, 0x77, 0x80, 0x48, 0x00,
  0x10, 0x90, 0x4c, 0x40, 0x81, 0x58, 0x80, 0x30, 0x00, 0x0f, 0x80, 0x4c,
  0x00, 0x10, 0x90, 0x48, 0x40, 0x00, 0x90, 0x34, 0x40, 0x81, 0x68, 0x80,
  0x48, 0x00, 0x10, 0x90, 0x43, 0x40, 0x81, 0x62, 0x80, 0x34, 0x00, 0x1f,
  0x90, 0x2b, 0x41, 0x83, 0x5a, 0x80, 0x43, 0x00, 0x00, 0x80, 0x2b, 0x00,
  0x1f, 0x90, 0x42, 0x40, 0x00, 0x90, 0x34, 0x40, 0x81, 0x68, 0x80, 0x42,
  0x00, 0x10, 0x90, 0x43, 0x40, 0x81, 0x64, 0x80, 0x34, 0x00, 0x0f, 0x80,
  0x43, 0x00, 0x14, 0x90, 0x45, 0x45, 0x00, 0x90, 0x2d, 0x45, 0x83, 0x7f,
  0x80, 0x2d, 0x00, 0x1f, 0x90, 0x35, 0x40, 0x83, 0x5d, 0x80, 0x35, 0x00,
  0x1e, 0x80, 0x45, 0x00, 0x01, 0x90, 0x44, 0x41, 0x00, 0x90, 0x34, 0x41,
  0x83, 0x5a, 0x80, 0x34, 0x00, 0x1f, 0x90, 0x31, 0x40, 0x83, 0x5f, 0x80,
  0x31, 0x00, 0x1e, 0x80, 0x44, 0x00, 0x01, 0x90, 0x45, 0x43, 0x00, 0x90,
  0x32, 0x43, 0x83, 0x5f, 0x80, 0x32, 0x00, 0x1f, 0x90, 0x2f, 0x40, 0x83,
  0x5a, 0x80, 0x2f, 0x00, 0x1f, 0x90, 0x2d, 0x41, 0x83, 0x5a, 0x80, 0x2d,
  0x00, 0x1f, 0x90, 0x2b, 0x40, 0x83, 0x5c, 0x80, 0x2b, 0x00, 0x1e, 0x80,
  0x45, 0x00, 0x05, 0x90, 0x4d, 0x45, 0x00, 0x90, 0x29, 0x45, 0x82, 0x15,
  0x80, 0x4d, 0x00, 0x10, 0x90, 0x4c, 0x40, 0x81, 0x69, 0x80, 0x4c, 0x00,
  0x10, 0x90, 0x4a, 0x40, 0x81, 0x69, 0x80, 0x4a, 0x00, 0x10, 0x90, 0x48,
  0x40, 0x82, 0x02, 0x80, 0x29, 0x00, 0x81, 0x73, 0x80, 0x48, 0x00, 0x10,
  0x90, 0x4a, 0x40, 0x81, 0x67, 0x80, 0x4a, 0x00, 0x10, 0x90, 0x4c, 0x40,
  0x00, 0x90, 0x35, 0x40, 0x83, 0x5f, 0x80, 0x35, 0x00, 0x1e, 0x80, 0x4c,
  0x00, 0x01, 0x90, 0x4c, 0x43, 0x00, 0x90, 0x34, 0x43, 0x81, 0x77, 0x80,
  0x4c, 0x00, 0x10, 0x90, 0x4a, 0x40, 0x81, 0x67, 0x80, 0x4a, 0x00, 0x10,
  0x90, 0x48, 0x40, 0x81, 0x68, 0x80, 0x48, 0x00, 0x10, 0x90, 0x43, 0x40,
  0x82, 0x00, 0x80, 0x34, 0x00, 0x81, 0x72, 0x80, 0x43, 0x00, 0x10, 0x90,
  0x3c, 0x40, 0x81, 0x68, 0x80, 0x3c, 0x00, 0x10, 0x90, 0x3e, 0x40, 0x00,
  0x90, 0x29, 0x40, 0x81, 0x68, 0x80, 0x3e, 0x00, 0x10, 0x90, 0x45, 0x40,
  0x81, 0x64, 0x80, 0x29, 0x00, 0x0f, 0x80, 0x45, 0x00, 0x14, 0x90, 0x43,
  0x45, 0x84, 0x1e, 0x90, 0x35, 0x40, 0x83, 0x5d, 0x80, 0x35, 0x00, 0x1e,
  0x80, 0x43, 0x00, 0x01, 0x90, 0x47, 0x41, 0x81, 0x72, 0x80, 0x47, 0x00,
  0x10, 0x90, 0x4d, 0x40, 0x81, 0x67, 0x80, 0x4d, 0x00, 0x10, 0x90, 0x45,
  0x40, 0x00, 0x90, 0x35, 0x40, 0x81, 0x68, 0x80, 0x45, 0x00, 0x10, 0x90,
  0x47, 0x40, 0x81, 0x67, 0x80, 0x35, 0x00, 0x0f, 0x80, 0x47, 0x00, 0x10,
  0x90, 0x48, 0x43, 0x00, 0x90, 0x30, 0x43, 0x83, 0x5f, 0x80, 0x48, 0x00,
  0x00, 0x80, 0x30, 0x00, 0x1f, 0x90, 0x43, 0x40, 0x00, 0x90, 0x2b, 0x40,
  0x83, 0x5a, 0x80, 0x43, 0x00, 0x00, 0x80, 0x2b, 0x00, 0x1f, 0x90, 0x48,
  0x41, 0x00, 0x90, 0x30, 0x41, 0x87, 0x73, 0x80, 0x48, 0x00, 0x00, 0x80,
  0x30, 0x00, 0x05, 0x90, 0x50, 0x45, 0x82, 0x15, 0x80, 0x50, 0x00, 0x10,
  0x90, 0x52, 0x40, 0x00, 0x90, 0x29, 0x40, 0x81, 0x69, 0x80, 0x52, 0x00,
  0x10, 0x90, 0x50, 0x40, 0x81, 0x69, 0x80, 0x50, 0x00, 0x0f, 0x80, 0x29,
  0x00, 0x01, 0x90, 0x4d, 0x40, 0x00, 0x90, 0x29, 0x40, 0x82, 0x02, 0x80,
  0x29, 0x00, 0x01, 0x90, 0x29, 0x41, 0x81, 0x72, 0x80, 0x4d, 0x00, 0x10,
  0x90, 0x48, 0x40, 0x81, 0x67, 0x80, 0x48, 0x00, 0x10, 0x90, 0x4a, 0x40,
  0x81, 0x68, 0x80, 0x4a, 0x00, 0x10, 0x90, 0x4c, 0x40, 0x81, 0x76, 0x80,
  0x4c, 0x00, 0x0f, 0x80, 0x29, 0x00, 0x01, 0x90, 0x4d, 0x43, 0x82, 0x07,
  0x90, 0x29, 0x40, 0x83, 0x6e, 0x80, 0x29, 0x00, 0x01, 0x90, 0x29, 0x40,
  0x82, 0x00, 0x80, 0x4d, 0x00, 0x00, 0x80, 0x29, 0x00, 0x01, 0x90, 0x4b,
  0x41, 0x00, 0x90, 0x29, 0x41, 0x81, 0x71, 0x80, 0x4b, 0x00, 0x10, 0x90,
  0x4d, 0x40, 0x81, 0x68, 0x80, 0x4d, 0x00, 0x10, 0x90, 0x4b, 0x40, 0x81,
  0x68, 0x80, 0x4b, 0x00, 0x10, 0x90, 0x48, 0x40, 0x81, 0x73, 0x80, 0x48,
  0x00, 0x0f, 0x80, 0x29, 0x00, 0x05, 0x90, 0x50, 0x45, 0x82, 0x15, 0x80,
  0x50, 0x00, 0x10, 0x90, 0x52, 0x40, 0x00, 0x90, 0x29, 0x40, 0x81, 0x69,
  0x80, 0x52, 0x00, 0x10, 0x90, 0x50, 0x40, 0x81, 0x69, 0x80, 0x50, 0x00,
  0x0f, 0x80, 0x29, 0x00, 0x01, 0x90, 0x4d, 0x40, 0x00, 0x90, 0x29, 0x40,
  0x82, 0x02, 0x80, 0x29, 0x00, 0x01, 0x90, 0x29, 0x41, 0x81, 0x72, 0x80,
  0x4d, 0x00, 0x10, 0x90, 0x48, 0x40, 0x81, 0x67, 0x80, 0x48, 0x00, 0x10,
  0x90, 0x4b, 0x40, 0x83, 0x5f, 0x80, 0x4b, 0x00, 0x1e, 0x80, 0x29, 0x00,
  0x01, 0x90, 0x48, 0x43, 0x82, 0x07, 0x90, 0x24, 0x3e, 0x83, 0x6e, 0x80,
  0x24, 0x00, 0x01, 0x90, 0x24, 0x3e, 0x82, 0x00, 0x80, 0x48, 0x00, 0x00,
  0x80, 0x24, 0x00, 0x01, 0x90, 0x24, 0x3f, 0x82, 0x01, 0x90, 0x54, 0x40,
  0x81, 0x68, 0x80, 0x54, 0x00, 0x10, 0x90, 0x56, 0x40, 0x81, 0x68, 0x80,
  0x56, 0x00, 0x10, 0x90, 0x58, 0x40, 0x82, 0x02, 0x80, 0x58, 0x00, 0x00,
  0x80, 0x24, 0x00, 0x05, 0x90, 0x58, 0x45, 0x00, 0x90, 0x29, 0x45, 0x82,
  0x15, 0x80, 0x58, 0x00, 0x10, 0x90, 0x59, 0x40, 0x81, 0x69, 0x80, 0x59,
  0x00, 0x10, 0x90, 0x58, 0x40, 0x81, 0x69, 0x80, 0x58, 0x00, 0x10, 0x90,
  0x59, 0x40, 0x81, 0x73, 0x80, 0x59, 0x00, 0x0f, 0x80, 0x29, 0x00, 0x01,
  0x90, 0x57, 0x41, 0x00, 0x90, 0x27, 0x40, 0x82, 0x01, 0x80, 0x57, 0x00,
  0x01, 0x90, 0x57, 0x40, 0x81, 0x67, 0x80, 0x57, 0x00, 0x10, 0x90, 0x54,
  0x40, 0x81, 0x68, 0x80, 0x54, 0x00, 0x10, 0x90, 0x50, 0x40, 0x81, 0x76,
  0x80, 0x50, 0x00, 0x0f, 0x80, 0x27, 0x00, 0x01, 0x90, 0x52, 0x43, 0x00,
  0x90, 0x25, 0x42, 0x81, 0x77, 0x80, 0x52, 0x00, 0x10, 0x90, 0x50, 0x40,
  0x81, 0x67, 0x80, 0x50, 0x00, 0x10, 0x90, 0x52, 0x40, 0x81, 0x68, 0x80,
  0x52, 0x00, 0x10, 0x90, 0x54, 0x40, 0x82, 0x00, 0x80, 0x25, 0x00, 0x01,
  0x90, 0x24, 0x3f, 0x81, 0x71, 0x80, 0x54, 0x00, 0x10, 0x90, 0x52, 0x40,
  0x81, 0x68, 0x80, 0x52, 0x00, 0x10, 0x90, 0x50, 0x40, 0x81, 0x68, 0x80,
  0x50, 0x00, 0x10, 0x90, 0x4d, 0x40, 0x81, 0x73, 0x80, 0x4d, 0x00, 0x0f,
  0x80, 0x24, 0x00, 0x05, 0x90, 0x4b, 0x45, 0x00, 0x90, 0x29, 0x45, 0x82,
  0x15, 0x80, 0x4b, 0x00, 0x10, 0x90, 0x4d, 0x40, 0x81, 0x5a, 0x80, 0x29,
  0x00, 0x0f, 0x80, 0x4d, 0x00, 0x10, 0x90, 0x4b, 0x40, 0x00, 0x90, 0x2c,
  0x40, 0x81, 0x69, 0x80, 0x4b, 0x00, 0x10, 0x90, 0x48, 0x40, 0x81, 0x64,
  0x80, 0x2c, 0x00, 0x0f, 0x80, 0x48, 0x00, 0x10, 0x90, 0x4b, 0x41, 0x00,
  0x90, 0x2e, 0x41, 0x81, 0x72, 0x80, 0x4b, 0x00, 0x10, 0x90, 0x48, 0x40,
  0x81, 0x58, 0x80, 0x2e, 0x00, 0x0f, 0x80, 0x48, 0x00, 0x10, 0x90, 0x46,
  0x40, 0x00, 0x90, 0x30, 0x40, 0x81, 0x68, 0x80, 0x46, 0x00, 0x10, 0x90,
  0x44, 0x40, 0x81, 0x67, 0x80, 0x30, 0x00, 0x0f, 0x80, 0x44, 0x00, 0x10,
  0x90, 0x41, 0x43, 0x00, 0x90, 0x33, 0x43, 0x81, 0x77, 0x80, 0x33, 0x00,
  0x10, 0x90, 0x30, 0x40, 0x81, 0x67, 0x80, 0x30, 0x00, 0x10, 0x90, 0x2e,
  0x40, 0x81, 0x68, 0x80, 0x2e, 0x00, 0x10, 0x90, 0x2c, 0x40, 0x81, 0x71,
  0x80, 0x2c, 0x00, 0x10, 0x90, 0x29, 0x41, 0x87, 0x73, 0x80, 0x41, 0x00,
  0x00, 0x80, 0x29, 0x00, 0x00, 0xff, 0x2f, 0x00
};

